<svg width="14" height="15" viewBox="0 0 14 15" fill="none" xmlns="http://www.w3.org/2000/svg">
<path d="M6.99998 0.333344C10.682 0.333344 13.6666 3.31801 13.6666 7.00001C13.6666 10.682 10.682 13.6667 6.99998 13.6667C3.31798 13.6667 0.333313 10.682 0.333313 7.00001C0.333313 3.31801 3.31798 0.333344 6.99998 0.333344ZM6.99998 3.66668C6.83669 3.6667 6.67909 3.72665 6.55706 3.83515C6.43504 3.94366 6.35708 4.09318 6.33798 4.25534L6.33331 4.33334V6.33334H4.33331C4.16339 6.33353 3.99996 6.3986 3.8764 6.51524C3.75284 6.63189 3.67849 6.79131 3.66853 6.96094C3.65857 7.13057 3.71376 7.2976 3.82282 7.4279C3.93188 7.5582 4.08658 7.64194 4.25531 7.66201L4.33331 7.66668H6.33331V9.66668C6.3335 9.8366 6.39857 10 6.51521 10.1236C6.63186 10.2471 6.79128 10.3215 6.96091 10.3315C7.13054 10.3414 7.29757 10.2862 7.42787 10.1772C7.55817 10.0681 7.64191 9.91341 7.66198 9.74468L7.66665 9.66668V7.66668H9.66665C9.83657 7.66649 10 7.60142 10.1236 7.48478C10.2471 7.36813 10.3215 7.20871 10.3314 7.03908C10.3414 6.86945 10.2862 6.70242 10.1771 6.57212C10.0681 6.44182 9.91338 6.35808 9.74465 6.33801L9.66665 6.33334H7.66665V4.33334C7.66665 4.15653 7.59641 3.98696 7.47138 3.86194C7.34636 3.73691 7.17679 3.66668 6.99998 3.66668Z" fill="#007AFF"/>
</svg>
