<svg width="15" height="12" viewBox="0 0 15 12" fill="none" xmlns="http://www.w3.org/2000/svg">
<path d="M11.0283 0.195762C11.2724 -0.0483148 11.659 -0.0637029 11.9209 0.149864L11.9717 0.195762L13.9658 2.1899C13.9713 2.19522 13.9762 2.20101 13.9814 2.2065L14.0166 2.24654C14.0221 2.25329 14.0261 2.26113 14.0312 2.26803C14.0436 2.28452 14.0556 2.30118 14.0664 2.31881C14.0772 2.33634 14.0867 2.35428 14.0957 2.37252C14.105 2.39134 14.1136 2.41037 14.1211 2.43014C14.1288 2.45039 14.135 2.47089 14.1406 2.49166C14.1454 2.50913 14.151 2.52638 14.1543 2.5444C14.1592 2.57057 14.1604 2.59701 14.1621 2.6235C14.163 2.63777 14.167 2.65196 14.167 2.66647C14.167 2.6809 14.163 2.69523 14.1621 2.70943C14.1605 2.73491 14.1598 2.76042 14.1553 2.78561C14.1518 2.80466 14.1456 2.82282 14.1406 2.84127C14.1349 2.86245 14.128 2.88313 14.1201 2.90377C14.1128 2.92286 14.1047 2.94123 14.0957 2.95943C14.087 2.97707 14.0777 2.99422 14.0674 3.01119C14.0561 3.02975 14.0442 3.04759 14.0312 3.0649C14.026 3.07193 14.0222 3.0805 14.0166 3.08736L13.9717 3.13815L11.9717 5.13815C11.7113 5.39849 11.2887 5.39849 11.0283 5.13815C10.7682 4.87791 10.7684 4.45611 11.0283 4.19576L11.8906 3.33346H10.167C9.45975 3.33346 8.78135 3.61461 8.28125 4.11471C7.78119 4.6148 7.5 5.29324 7.5 6.00045L7.50293 6.13229C7.53563 6.79133 7.81248 7.41639 8.28125 7.88522C8.78135 8.38531 9.45975 8.66647 10.167 8.66647H11.8906L11.0283 7.80514L10.9834 7.75436C10.7698 7.49253 10.7843 7.10586 11.0283 6.86178C11.2724 6.6177 11.659 6.60329 11.9209 6.81686L11.9717 6.86178L13.9717 8.86178L14.0166 8.91256C14.022 8.9192 14.0261 8.92725 14.0312 8.93404C14.0443 8.95132 14.0561 8.96923 14.0674 8.98775C14.0777 9.0047 14.087 9.0219 14.0957 9.03951C14.1047 9.05769 14.1128 9.07611 14.1201 9.09518C14.128 9.1158 14.1348 9.13651 14.1406 9.15768C14.1456 9.17575 14.1509 9.19371 14.1543 9.21236C14.159 9.23791 14.1604 9.26367 14.1621 9.28951C14.1631 9.30406 14.167 9.31867 14.167 9.33346C14.167 9.34763 14.163 9.3615 14.1621 9.37545C14.1604 9.40195 14.1591 9.42837 14.1543 9.45455C14.1512 9.47155 14.146 9.48784 14.1416 9.50436C14.1355 9.52716 14.1286 9.54956 14.1201 9.57174C14.1129 9.59053 14.1045 9.6085 14.0957 9.62643C14.087 9.64405 14.0777 9.66122 14.0674 9.67818C14.0561 9.69673 14.0442 9.7146 14.0312 9.7319C14.026 9.73885 14.0221 9.74756 14.0166 9.75436L13.9717 9.80514L11.9717 11.8051C11.7113 12.0654 11.2887 12.0654 11.0283 11.8051C10.768 11.5448 10.768 11.1221 11.0283 10.8618L11.8906 10.0005H10.167C9.10631 10.0005 8.08898 9.57848 7.33887 8.82858C7.14877 8.63848 6.98036 8.43019 6.83398 8.20943C6.6875 8.4304 6.51839 8.63831 6.32812 8.82858C5.62494 9.53164 4.6867 9.9455 3.69824 9.99459L3.5 10.0005H1.5C1.13185 10.0005 0.833076 9.70159 0.833008 9.33346C0.833008 8.96527 1.13181 8.66647 1.5 8.66647H3.5L3.63184 8.66354C4.29096 8.63085 4.91688 8.35407 5.38574 7.88522C5.82326 7.44757 6.09275 6.87359 6.15332 6.26315L6.16699 6.00045C6.16699 5.29331 5.8857 4.61478 5.38574 4.11471C4.91688 3.64585 4.29096 3.36907 3.63184 3.33639L3.5 3.33346H1.5C1.13181 3.33346 0.833008 3.03466 0.833008 2.66647C0.833116 2.29837 1.13188 2.00045 1.5 2.00045H3.5L3.69824 2.00533C4.68681 2.05443 5.62492 2.46912 6.32812 3.17232C6.51776 3.36199 6.68686 3.56835 6.83301 3.78854C6.97924 3.56817 7.14908 3.36212 7.33887 3.17232C8.08901 2.42218 9.10613 2.00045 10.167 2.00045H11.8916L11.0283 1.13815L10.9834 1.08736C10.7699 0.825651 10.7846 0.43986 11.0283 0.195762Z" fill="#5856D6"/>
</svg>
